<?xml version="1.0" encoding="utf-8"?>
<!DOCTYPE svg PUBLIC "-//W3C//DTD SVG 20010904//EN" "http://www.w3.org/TR/2001/REC-SVG-20010904/DTD/svg10.dtd">
<svg version="1.0" xmlns="http://www.w3.org/2000/svg" width="256px" height="256px" viewBox="0 0 256 256" preserveAspectRatio="xMidYMid meet">
 <g fill="#ff503a">
  <path d="M120 214.3 c-33.9 -3.5 -63.3 -26.8 -73.9 -58.8 -6.2 -18.5 -6.2 -36.5 0 -55 4.3 -12.9 10.8 -23.4 20.9 -33.5 14.3 -14.2 31.5 -22.6 51.7 -25 17.5 -2.1 37.7 2.3 53.8 11.8 10.5 6.2 23.5 19.2 29.7 29.7 9.5 16.1 13.9 36.3 11.8 53.8 -3.4 28.1 -19.8 52.9 -44 66.5 -7.9 4.4 -22.1 8.9 -32 10.1 -8.3 1.1 -11 1.1 -18 0.4z m23.2 -15.8 c21.7 -4.4 42.7 -22 51.6 -43.2 2.1 -4.8 5.2 -16.2 5.2 -19.1 0 -1 -4.4 -1.2 -20.2 -1 l-20.1 0.3 -1.5 4.5 c-2.2 6.6 -12 16.1 -19.2 18.6 -16.5 5.6 -34.5 -2.3 -41.1 -18.1 l-2.3 -5.5 -19.8 0 c-15.2 0 -19.8 0.3 -19.8 1.3 0 2.8 3.2 14.2 5.2 19 6.6 15.7 19.8 29.6 34.9 37.1 5.2 2.6 12.3 5.3 15.9 6 8.7 1.9 22.2 1.9 31.2 0.1z m-7.3 -54.3 c10.7 -5.4 13.4 -19.4 5.5 -28.2 -4.2 -4.7 -8.9 -6.4 -15.6 -5.8 -14.4 1.4 -21 19.4 -11 30.2 5.3 5.6 14.4 7.3 21.1 3.8z"/>
 </g>
</svg>